<svg xmlns="http://www.w3.org/2000/svg" xmlns:xlink="http://www.w3.org/1999/xlink" width="500" zoomAndPan="magnify" viewBox="0 0 375 149.999998" height="200" preserveAspectRatio="xMidYMid meet" version="1.2"><defs><clipPath id="2a69acb2fe"><path d="M 0.078125 8 L 16 8 L 16 24 L 0.078125 24 Z M 0.078125 8 "/></clipPath><clipPath id="3efed17823"><rect x="0" width="366" y="0" height="32"/></clipPath><clipPath id="e63e44ca5e"><rect x="0" width="375" y="0" height="138"/></clipPath></defs><g id="fc20c69409"><g transform="matrix(1,0,0,1,4,112)"><g clip-path="url(#3efed17823)"><g clip-rule="nonzero" clip-path="url(#2a69acb2fe)"><g style="fill:#a6a6a6;fill-opacity:1;"><g transform="translate(0.274268, 23.594084)"><path style="stroke:none" d="M 0.1875 0 L 6.015625 -14.671875 L 9.28125 -14.671875 L 15.109375 0 L 11.546875 0 L 10.5625 -2.53125 L 4.734375 -2.53125 L 3.75 0 Z M 5.59375 -5.15625 L 9.71875 -5.15625 L 7.640625 -10.515625 Z M 5.59375 -5.15625 "/></g></g></g><g style="fill:#a6a6a6;fill-opacity:1;"><g transform="translate(17.71879, 23.594084)"><path style="stroke:none" d="M 1.765625 0 L 1.765625 -14.671875 L 5.09375 -14.671875 L 5.09375 0 Z M 1.765625 0 "/></g></g><g style="fill:#a6a6a6;fill-opacity:1;"><g transform="translate(26.724367, 23.594084)"><path style="stroke:none" d=""/></g></g><g style="fill:#a6a6a6;fill-opacity:1;"><g transform="translate(33.803438, 23.594084)"><path style="stroke:none" d="M 1.765625 0 L 1.765625 -14.671875 L 7.5 -14.671875 C 8.6875 -14.671875 9.710938 -14.453125 10.578125 -14.015625 C 11.441406 -13.585938 12.113281 -12.972656 12.59375 -12.171875 C 13.082031 -11.378906 13.328125 -10.441406 13.328125 -9.359375 C 13.328125 -8.304688 13.082031 -7.378906 12.59375 -6.578125 C 12.113281 -5.785156 11.441406 -5.171875 10.578125 -4.734375 C 9.710938 -4.296875 8.6875 -4.078125 7.5 -4.078125 L 5.09375 -4.078125 L 5.09375 0 Z M 5.078125 -6.953125 L 7.234375 -6.953125 C 8.097656 -6.953125 8.765625 -7.15625 9.234375 -7.5625 C 9.703125 -7.976562 9.9375 -8.570312 9.9375 -9.34375 C 9.9375 -10.113281 9.703125 -10.707031 9.234375 -11.125 C 8.765625 -11.539062 8.097656 -11.75 7.234375 -11.75 L 5.078125 -11.75 Z M 5.078125 -6.953125 "/></g></g><g style="fill:#a6a6a6;fill-opacity:1;"><g transform="translate(49.886846, 23.594084)"><path style="stroke:none" d="M 8.71875 0.296875 C 7.195312 0.296875 5.84375 -0.0234375 4.65625 -0.671875 C 3.476562 -1.328125 2.554688 -2.226562 1.890625 -3.375 C 1.234375 -4.519531 0.90625 -5.835938 0.90625 -7.328125 C 0.90625 -8.828125 1.234375 -10.148438 1.890625 -11.296875 C 2.554688 -12.441406 3.476562 -13.335938 4.65625 -13.984375 C 5.84375 -14.628906 7.195312 -14.953125 8.71875 -14.953125 C 10.25 -14.953125 11.601562 -14.628906 12.78125 -13.984375 C 13.957031 -13.335938 14.878906 -12.441406 15.546875 -11.296875 C 16.210938 -10.148438 16.546875 -8.828125 16.546875 -7.328125 C 16.546875 -5.835938 16.210938 -4.519531 15.546875 -3.375 C 14.878906 -2.226562 13.957031 -1.328125 12.78125 -0.671875 C 11.601562 -0.0234375 10.25 0.296875 8.71875 0.296875 Z M 4.296875 -7.328125 C 4.296875 -6.453125 4.484375 -5.675781 4.859375 -5 C 5.234375 -4.332031 5.753906 -3.8125 6.421875 -3.4375 C 7.085938 -3.0625 7.851562 -2.875 8.71875 -2.875 C 9.59375 -2.875 10.363281 -3.0625 11.03125 -3.4375 C 11.695312 -3.8125 12.210938 -4.332031 12.578125 -5 C 12.953125 -5.675781 13.140625 -6.453125 13.140625 -7.328125 C 13.140625 -8.210938 12.953125 -8.988281 12.578125 -9.65625 C 12.210938 -10.332031 11.695312 -10.859375 11.03125 -11.234375 C 10.363281 -11.609375 9.59375 -11.796875 8.71875 -11.796875 C 7.851562 -11.796875 7.085938 -11.609375 6.421875 -11.234375 C 5.753906 -10.859375 5.234375 -10.332031 4.859375 -9.65625 C 4.484375 -8.988281 4.296875 -8.210938 4.296875 -7.328125 Z M 4.296875 -7.328125 "/></g></g><g style="fill:#a6a6a6;fill-opacity:1;"><g transform="translate(69.48823, 23.594084)"><path style="stroke:none" d="M 4.921875 0 L 0.203125 -14.671875 L 3.75 -14.671875 L 5.15625 -10.203125 L 6.703125 -5.390625 L 8.375 -10.203125 L 9.953125 -14.671875 L 13.109375 -14.671875 L 14.6875 -10.203125 L 16.390625 -5.328125 L 17.953125 -10.203125 L 19.359375 -14.671875 L 22.875 -14.671875 L 18.140625 0 L 14.875 0 L 11.546875 -9.484375 L 8.21875 0 Z M 4.921875 0 "/></g></g><g style="fill:#a6a6a6;fill-opacity:1;"><g transform="translate(94.722558, 23.594084)"><path style="stroke:none" d="M 1.765625 0 L 1.765625 -14.671875 L 11.40625 -14.671875 L 11.40625 -11.859375 L 5.078125 -11.859375 L 5.078125 -8.828125 L 10.828125 -8.828125 L 10.828125 -6.03125 L 5.078125 -6.03125 L 5.078125 -2.828125 L 11.625 -2.828125 L 11.625 0 Z M 1.765625 0 "/></g></g><g style="fill:#a6a6a6;fill-opacity:1;"><g transform="translate(109.570477, 23.594084)"><path style="stroke:none" d="M 1.765625 0 L 1.765625 -14.671875 L 8.03125 -14.671875 C 9.144531 -14.671875 10.113281 -14.46875 10.9375 -14.0625 C 11.757812 -13.65625 12.394531 -13.070312 12.84375 -12.3125 C 13.289062 -11.5625 13.515625 -10.664062 13.515625 -9.625 C 13.515625 -8.539062 13.269531 -7.609375 12.78125 -6.828125 C 12.289062 -6.054688 11.609375 -5.476562 10.734375 -5.09375 L 13.765625 0 L 9.90625 0 L 7.296875 -4.5625 L 5.09375 -4.5625 L 5.09375 0 Z M 5.046875 -7.375 L 7.578125 -7.375 C 8.410156 -7.375 9.046875 -7.566406 9.484375 -7.953125 C 9.921875 -8.335938 10.140625 -8.882812 10.140625 -9.59375 C 10.140625 -10.3125 9.921875 -10.859375 9.484375 -11.234375 C 9.046875 -11.617188 8.410156 -11.8125 7.578125 -11.8125 L 5.046875 -11.8125 Z M 5.046875 -7.375 "/></g></g><g style="fill:#a6a6a6;fill-opacity:1;"><g transform="translate(126.470554, 23.594084)"><path style="stroke:none" d="M 1.765625 0 L 1.765625 -14.671875 L 11.40625 -14.671875 L 11.40625 -11.859375 L 5.078125 -11.859375 L 5.078125 -8.828125 L 10.828125 -8.828125 L 10.828125 -6.03125 L 5.078125 -6.03125 L 5.078125 -2.828125 L 11.625 -2.828125 L 11.625 0 Z M 1.765625 0 "/></g></g><g style="fill:#a6a6a6;fill-opacity:1;"><g transform="translate(141.318473, 23.594084)"><path style="stroke:none" d="M 1.765625 0 L 1.765625 -14.671875 L 7.5625 -14.671875 C 9.113281 -14.671875 10.46875 -14.363281 11.625 -13.75 C 12.789062 -13.132812 13.691406 -12.273438 14.328125 -11.171875 C 14.972656 -10.066406 15.296875 -8.785156 15.296875 -7.328125 C 15.296875 -5.867188 14.972656 -4.585938 14.328125 -3.484375 C 13.691406 -2.390625 12.789062 -1.535156 11.625 -0.921875 C 10.46875 -0.304688 9.113281 0 7.5625 0 Z M 5.09375 -3.0625 L 7.5 -3.0625 C 8.363281 -3.0625 9.125 -3.238281 9.78125 -3.59375 C 10.4375 -3.945312 10.945312 -4.445312 11.3125 -5.09375 C 11.6875 -5.738281 11.875 -6.484375 11.875 -7.328125 C 11.875 -8.191406 11.6875 -8.941406 11.3125 -9.578125 C 10.945312 -10.222656 10.429688 -10.722656 9.765625 -11.078125 C 9.109375 -11.429688 8.335938 -11.609375 7.453125 -11.609375 L 5.09375 -11.609375 Z M 5.09375 -3.0625 "/></g></g><g style="fill:#a6a6a6;fill-opacity:1;"><g transform="translate(159.642489, 23.594084)"><path style="stroke:none" d=""/></g></g><g style="fill:#a6a6a6;fill-opacity:1;"><g transform="translate(166.72156, 23.594084)"><path style="stroke:none" d="M 6.875 0.296875 C 5.644531 0.296875 4.585938 0.09375 3.703125 -0.3125 C 2.816406 -0.71875 2.128906 -1.289062 1.640625 -2.03125 C 1.160156 -2.78125 0.921875 -3.660156 0.921875 -4.671875 L 4.1875 -4.671875 C 4.1875 -3.972656 4.425781 -3.425781 4.90625 -3.03125 C 5.394531 -2.644531 6.046875 -2.453125 6.859375 -2.453125 C 7.554688 -2.453125 8.101562 -2.585938 8.5 -2.859375 C 8.90625 -3.128906 9.109375 -3.507812 9.109375 -4 C 9.109375 -4.519531 8.863281 -4.9375 8.375 -5.25 C 7.882812 -5.570312 7.125 -5.847656 6.09375 -6.078125 C 4.375 -6.441406 3.101562 -6.992188 2.28125 -7.734375 C 1.457031 -8.472656 1.046875 -9.4375 1.046875 -10.625 C 1.046875 -11.96875 1.535156 -13.023438 2.515625 -13.796875 C 3.492188 -14.566406 4.828125 -14.953125 6.515625 -14.953125 C 7.671875 -14.953125 8.675781 -14.753906 9.53125 -14.359375 C 10.382812 -13.960938 11.046875 -13.40625 11.515625 -12.6875 C 11.984375 -11.96875 12.21875 -11.113281 12.21875 -10.125 L 9.015625 -10.125 C 9.015625 -10.78125 8.796875 -11.296875 8.359375 -11.671875 C 7.921875 -12.046875 7.320312 -12.234375 6.5625 -12.234375 C 5.863281 -12.234375 5.3125 -12.097656 4.90625 -11.828125 C 4.5 -11.554688 4.296875 -11.175781 4.296875 -10.6875 C 4.296875 -10.238281 4.519531 -9.859375 4.96875 -9.546875 C 5.414062 -9.242188 6.195312 -8.960938 7.3125 -8.703125 C 9.144531 -8.265625 10.460938 -7.679688 11.265625 -6.953125 C 12.078125 -6.222656 12.484375 -5.28125 12.484375 -4.125 C 12.484375 -2.738281 11.984375 -1.65625 10.984375 -0.875 C 9.984375 -0.09375 8.613281 0.296875 6.875 0.296875 Z M 6.875 0.296875 "/></g></g><g style="fill:#a6a6a6;fill-opacity:1;"><g transform="translate(182.302402, 23.594084)"><path style="stroke:none" d="M 1.765625 0 L 1.765625 -14.671875 L 5.09375 -14.671875 L 5.09375 0 Z M 1.765625 0 "/></g></g><g style="fill:#a6a6a6;fill-opacity:1;"><g transform="translate(191.307979, 23.594084)"><path style="stroke:none" d="M 1.765625 0 L 1.765625 -14.671875 L 11.40625 -14.671875 L 11.40625 -11.859375 L 5.078125 -11.859375 L 5.078125 -8.828125 L 10.828125 -8.828125 L 10.828125 -6.03125 L 5.078125 -6.03125 L 5.078125 -2.828125 L 11.625 -2.828125 L 11.625 0 Z M 1.765625 0 "/></g></g><g style="fill:#a6a6a6;fill-opacity:1;"><g transform="translate(206.155899, 23.594084)"><path style="stroke:none" d="M 1.765625 0 L 1.765625 -14.671875 L 4.59375 -14.671875 L 9.8125 -7.0625 L 15 -14.671875 L 17.8125 -14.671875 L 17.8125 0 L 14.5 0 L 14.5 -8.828125 L 10.9375 -3.625 L 8.625 -3.625 L 5.078125 -8.84375 L 5.078125 0 Z M 1.765625 0 "/></g></g><g style="fill:#a6a6a6;fill-opacity:1;"><g transform="translate(227.872251, 23.594084)"><path style="stroke:none" d=""/></g></g><g style="fill:#a6a6a6;fill-opacity:1;"><g transform="translate(234.951335, 23.594084)"><path style="stroke:none" d="M 6.875 0.296875 C 5.644531 0.296875 4.585938 0.09375 3.703125 -0.3125 C 2.816406 -0.71875 2.128906 -1.289062 1.640625 -2.03125 C 1.160156 -2.78125 0.921875 -3.660156 0.921875 -4.671875 L 4.1875 -4.671875 C 4.1875 -3.972656 4.425781 -3.425781 4.90625 -3.03125 C 5.394531 -2.644531 6.046875 -2.453125 6.859375 -2.453125 C 7.554688 -2.453125 8.101562 -2.585938 8.5 -2.859375 C 8.90625 -3.128906 9.109375 -3.507812 9.109375 -4 C 9.109375 -4.519531 8.863281 -4.9375 8.375 -5.25 C 7.882812 -5.570312 7.125 -5.847656 6.09375 -6.078125 C 4.375 -6.441406 3.101562 -6.992188 2.28125 -7.734375 C 1.457031 -8.472656 1.046875 -9.4375 1.046875 -10.625 C 1.046875 -11.96875 1.535156 -13.023438 2.515625 -13.796875 C 3.492188 -14.566406 4.828125 -14.953125 6.515625 -14.953125 C 7.671875 -14.953125 8.675781 -14.753906 9.53125 -14.359375 C 10.382812 -13.960938 11.046875 -13.40625 11.515625 -12.6875 C 11.984375 -11.96875 12.21875 -11.113281 12.21875 -10.125 L 9.015625 -10.125 C 9.015625 -10.78125 8.796875 -11.296875 8.359375 -11.671875 C 7.921875 -12.046875 7.320312 -12.234375 6.5625 -12.234375 C 5.863281 -12.234375 5.3125 -12.097656 4.90625 -11.828125 C 4.5 -11.554688 4.296875 -11.175781 4.296875 -10.6875 C 4.296875 -10.238281 4.519531 -9.859375 4.96875 -9.546875 C 5.414062 -9.242188 6.195312 -8.960938 7.3125 -8.703125 C 9.144531 -8.265625 10.460938 -7.679688 11.265625 -6.953125 C 12.078125 -6.222656 12.484375 -5.28125 12.484375 -4.125 C 12.484375 -2.738281 11.984375 -1.65625 10.984375 -0.875 C 9.984375 -0.09375 8.613281 0.296875 6.875 0.296875 Z M 6.875 0.296875 "/></g></g><g style="fill:#a6a6a6;fill-opacity:1;"><g transform="translate(250.532164, 23.594084)"><path style="stroke:none" d="M 8.71875 0.296875 C 7.195312 0.296875 5.84375 -0.0234375 4.65625 -0.671875 C 3.476562 -1.328125 2.554688 -2.226562 1.890625 -3.375 C 1.234375 -4.519531 0.90625 -5.835938 0.90625 -7.328125 C 0.90625 -8.828125 1.234375 -10.148438 1.890625 -11.296875 C 2.554688 -12.441406 3.476562 -13.335938 4.65625 -13.984375 C 5.84375 -14.628906 7.195312 -14.953125 8.71875 -14.953125 C 10.25 -14.953125 11.601562 -14.628906 12.78125 -13.984375 C 13.957031 -13.335938 14.878906 -12.441406 15.546875 -11.296875 C 16.210938 -10.148438 16.546875 -8.828125 16.546875 -7.328125 C 16.546875 -5.835938 16.210938 -4.519531 15.546875 -3.375 C 14.878906 -2.226562 13.957031 -1.328125 12.78125 -0.671875 C 11.601562 -0.0234375 10.25 0.296875 8.71875 0.296875 Z M 4.296875 -7.328125 C 4.296875 -6.453125 4.484375 -5.675781 4.859375 -5 C 5.234375 -4.332031 5.753906 -3.8125 6.421875 -3.4375 C 7.085938 -3.0625 7.851562 -2.875 8.71875 -2.875 C 9.59375 -2.875 10.363281 -3.0625 11.03125 -3.4375 C 11.695312 -3.8125 12.210938 -4.332031 12.578125 -5 C 12.953125 -5.675781 13.140625 -6.453125 13.140625 -7.328125 C 13.140625 -8.210938 12.953125 -8.988281 12.578125 -9.65625 C 12.210938 -10.332031 11.695312 -10.859375 11.03125 -11.234375 C 10.363281 -11.609375 9.59375 -11.796875 8.71875 -11.796875 C 7.851562 -11.796875 7.085938 -11.609375 6.421875 -11.234375 C 5.753906 -10.859375 5.234375 -10.332031 4.859375 -9.65625 C 4.484375 -8.988281 4.296875 -8.210938 4.296875 -7.328125 Z M 4.296875 -7.328125 "/></g></g><g style="fill:#a6a6a6;fill-opacity:1;"><g transform="translate(270.133548, 23.594084)"><path style="stroke:none" d="M 1.765625 0 L 1.765625 -14.671875 L 5.09375 -14.671875 L 5.09375 -3.125 L 11.5 -3.125 L 11.5 0 Z M 1.765625 0 "/></g></g><g style="fill:#a6a6a6;fill-opacity:1;"><g transform="translate(284.353263, 23.594084)"><path style="stroke:none" d="M 7.75 0.296875 C 6.476562 0.296875 5.382812 0.0390625 4.46875 -0.46875 C 3.550781 -0.976562 2.84375 -1.703125 2.34375 -2.640625 C 1.851562 -3.585938 1.609375 -4.71875 1.609375 -6.03125 L 1.609375 -14.671875 L 4.9375 -14.671875 L 4.9375 -6.265625 C 4.9375 -4.003906 5.875 -2.875 7.75 -2.875 C 9.625 -2.875 10.5625 -4.003906 10.5625 -6.265625 L 10.5625 -14.671875 L 13.890625 -14.671875 L 13.890625 -6.03125 C 13.890625 -4.71875 13.640625 -3.585938 13.140625 -2.640625 C 12.648438 -1.703125 11.945312 -0.976562 11.03125 -0.46875 C 10.113281 0.0390625 9.019531 0.296875 7.75 0.296875 Z M 7.75 0.296875 "/></g></g><g style="fill:#a6a6a6;fill-opacity:1;"><g transform="translate(302.007195, 23.594084)"><path style="stroke:none" d="M 5.28125 0 L 5.28125 -11.546875 L 0.625 -11.546875 L 0.625 -14.671875 L 13.265625 -14.671875 L 13.265625 -11.546875 L 8.609375 -11.546875 L 8.609375 0 Z M 5.28125 0 "/></g></g><g style="fill:#a6a6a6;fill-opacity:1;"><g transform="translate(318.04871, 23.594084)"><path style="stroke:none" d="M 1.765625 0 L 1.765625 -14.671875 L 5.09375 -14.671875 L 5.09375 0 Z M 1.765625 0 "/></g></g><g style="fill:#a6a6a6;fill-opacity:1;"><g transform="translate(327.0543, 23.594084)"><path style="stroke:none" d="M 8.71875 0.296875 C 7.195312 0.296875 5.84375 -0.0234375 4.65625 -0.671875 C 3.476562 -1.328125 2.554688 -2.226562 1.890625 -3.375 C 1.234375 -4.519531 0.90625 -5.835938 0.90625 -7.328125 C 0.90625 -8.828125 1.234375 -10.148438 1.890625 -11.296875 C 2.554688 -12.441406 3.476562 -13.335938 4.65625 -13.984375 C 5.84375 -14.628906 7.195312 -14.953125 8.71875 -14.953125 C 10.25 -14.953125 11.601562 -14.628906 12.78125 -13.984375 C 13.957031 -13.335938 14.878906 -12.441406 15.546875 -11.296875 C 16.210938 -10.148438 16.546875 -8.828125 16.546875 -7.328125 C 16.546875 -5.835938 16.210938 -4.519531 15.546875 -3.375 C 14.878906 -2.226562 13.957031 -1.328125 12.78125 -0.671875 C 11.601562 -0.0234375 10.25 0.296875 8.71875 0.296875 Z M 4.296875 -7.328125 C 4.296875 -6.453125 4.484375 -5.675781 4.859375 -5 C 5.234375 -4.332031 5.753906 -3.8125 6.421875 -3.4375 C 7.085938 -3.0625 7.851562 -2.875 8.71875 -2.875 C 9.59375 -2.875 10.363281 -3.0625 11.03125 -3.4375 C 11.695312 -3.8125 12.210938 -4.332031 12.578125 -5 C 12.953125 -5.675781 13.140625 -6.453125 13.140625 -7.328125 C 13.140625 -8.210938 12.953125 -8.988281 12.578125 -9.65625 C 12.210938 -10.332031 11.695312 -10.859375 11.03125 -11.234375 C 10.363281 -11.609375 9.59375 -11.796875 8.71875 -11.796875 C 7.851562 -11.796875 7.085938 -11.609375 6.421875 -11.234375 C 5.753906 -10.859375 5.234375 -10.332031 4.859375 -9.65625 C 4.484375 -8.988281 4.296875 -8.210938 4.296875 -7.328125 Z M 4.296875 -7.328125 "/></g></g><g style="fill:#a6a6a6;fill-opacity:1;"><g transform="translate(346.655683, 23.594084)"><path style="stroke:none" d="M 1.765625 0 L 1.765625 -14.671875 L 4.59375 -14.671875 L 11.0625 -5.734375 L 11.0625 -14.671875 L 14.375 -14.671875 L 14.375 0 L 11.546875 0 L 5.078125 -8.984375 L 5.078125 0 Z M 1.765625 0 "/></g></g></g></g><g transform="matrix(1,0,0,1,0,-0.000000000000007527)"><g clip-path="url(#e63e44ca5e)"><g style="fill:#a6a6a6;fill-opacity:1;"><g transform="translate(0.577666, 105.066898)"><path style="stroke:none" d="M 22.9375 0.765625 C 16.894531 0.765625 12.054688 -1.125 8.421875 -4.90625 C 4.796875 -8.695312 2.984375 -13.90625 2.984375 -20.53125 L 2.984375 -58.6875 C 2.984375 -66.914062 4.617188 -73.117188 7.890625 -77.296875 C 11.171875 -81.472656 16.316406 -83.5625 23.328125 -83.5625 C 29.429688 -83.5625 34.34375 -81.890625 38.0625 -78.546875 C 41.789062 -75.203125 43.65625 -70.382812 43.65625 -64.09375 L 43.65625 -49.828125 L 27.171875 -49.828125 L 27.171875 -62.0625 C 27.171875 -64.4375 26.878906 -66.070312 26.296875 -66.96875 C 25.722656 -67.875 24.734375 -68.328125 23.328125 -68.328125 C 21.847656 -68.328125 20.832031 -67.8125 20.28125 -66.78125 C 19.738281 -65.757812 19.46875 -64.253906 19.46875 -62.265625 L 19.46875 -20.71875 C 19.46875 -18.53125 19.785156 -16.9375 20.421875 -15.9375 C 21.066406 -14.945312 22.035156 -14.453125 23.328125 -14.453125 C 25.890625 -14.453125 27.171875 -16.539062 27.171875 -20.71875 L 27.171875 -35.65625 L 43.84375 -35.65625 L 43.84375 -20.046875 C 43.84375 -6.171875 36.875 0.765625 22.9375 0.765625 Z M 22.9375 0.765625 "/></g></g><g style="fill:#a6a6a6;fill-opacity:1;"><g transform="translate(46.258668, 105.066898)"><path style="stroke:none" d="M 23.421875 0.765625 C 16.734375 0.765625 11.65625 -1.269531 8.1875 -5.34375 C 4.71875 -9.425781 2.984375 -15.160156 2.984375 -22.546875 L 2.984375 -61.96875 C 2.984375 -69.101562 4.71875 -74.484375 8.1875 -78.109375 C 11.65625 -81.742188 16.734375 -83.5625 23.421875 -83.5625 C 30.097656 -83.5625 35.171875 -81.742188 38.640625 -78.109375 C 42.109375 -74.484375 43.84375 -69.101562 43.84375 -61.96875 L 43.84375 -22.546875 C 43.84375 -15.097656 42.109375 -9.347656 38.640625 -5.296875 C 35.171875 -1.253906 30.097656 0.765625 23.421875 0.765625 Z M 23.421875 -14.453125 C 24.898438 -14.453125 25.894531 -15.09375 26.40625 -16.375 C 26.914062 -17.664062 27.171875 -19.46875 27.171875 -21.78125 L 27.171875 -62.265625 C 27.171875 -64.054688 26.929688 -65.515625 26.453125 -66.640625 C 25.972656 -67.765625 24.992188 -68.328125 23.515625 -68.328125 C 20.753906 -68.328125 19.375 -66.238281 19.375 -62.0625 L 19.375 -21.6875 C 19.375 -19.3125 19.660156 -17.507812 20.234375 -16.28125 C 20.816406 -15.0625 21.878906 -14.453125 23.421875 -14.453125 Z M 23.421875 -14.453125 "/></g></g><g style="fill:#a6a6a6;fill-opacity:1;"><g transform="translate(93.096148, 105.066898)"><path style="stroke:none" d="M 3.65625 -82.78125 L 26.5 -82.78125 C 32.414062 -82.78125 36.847656 -81.140625 39.796875 -77.859375 C 42.753906 -74.585938 44.265625 -69.738281 44.328125 -63.3125 L 44.53125 -24.578125 C 44.59375 -16.421875 43.175781 -10.285156 40.28125 -6.171875 C 37.394531 -2.054688 32.609375 0 25.921875 0 L 3.65625 0 Z M 23.21875 -14.65625 C 26.238281 -14.65625 27.75 -16.128906 27.75 -19.078125 L 27.75 -61.78125 C 27.75 -63.644531 27.601562 -65.039062 27.3125 -65.96875 C 27.03125 -66.894531 26.503906 -67.519531 25.734375 -67.84375 C 24.960938 -68.164062 23.773438 -68.328125 22.171875 -68.328125 L 20.328125 -68.328125 L 20.328125 -14.65625 Z M 23.21875 -14.65625 "/></g></g><g style="fill:#a6a6a6;fill-opacity:1;"><g transform="translate(140.608238, 105.066898)"><path style="stroke:none" d="M 3.65625 0 L 3.65625 -82.78125 L 36.8125 -82.78125 L 36.8125 -66.78125 L 20.53125 -66.78125 L 20.53125 -50.6875 L 36.140625 -50.6875 L 36.140625 -35.078125 L 20.53125 -35.078125 L 20.53125 -16.09375 L 37.875 -16.09375 L 37.875 0 Z M 3.65625 0 "/></g></g><g style="fill:#a6a6a6;fill-opacity:1;"><g transform="translate(180.314084, 105.066898)"><path style="stroke:none" d="M 22.9375 0.765625 C 16.894531 0.765625 12.054688 -1.125 8.421875 -4.90625 C 4.796875 -8.695312 2.984375 -13.90625 2.984375 -20.53125 L 2.984375 -58.6875 C 2.984375 -66.914062 4.617188 -73.117188 7.890625 -77.296875 C 11.171875 -81.472656 16.316406 -83.5625 23.328125 -83.5625 C 29.429688 -83.5625 34.34375 -81.890625 38.0625 -78.546875 C 41.789062 -75.203125 43.65625 -70.382812 43.65625 -64.09375 L 43.65625 -49.828125 L 27.171875 -49.828125 L 27.171875 -62.0625 C 27.171875 -64.4375 26.878906 -66.070312 26.296875 -66.96875 C 25.722656 -67.875 24.734375 -68.328125 23.328125 -68.328125 C 21.847656 -68.328125 20.832031 -67.8125 20.28125 -66.78125 C 19.738281 -65.757812 19.46875 -64.253906 19.46875 -62.265625 L 19.46875 -20.71875 C 19.46875 -18.53125 19.785156 -16.9375 20.421875 -15.9375 C 21.066406 -14.945312 22.035156 -14.453125 23.328125 -14.453125 C 25.890625 -14.453125 27.171875 -16.539062 27.171875 -20.71875 L 27.171875 -35.65625 L 43.84375 -35.65625 L 43.84375 -20.046875 C 43.84375 -6.171875 36.875 0.765625 22.9375 0.765625 Z M 22.9375 0.765625 "/></g></g><g style="fill:#a6a6a6;fill-opacity:1;"><g transform="translate(225.995085, 105.066898)"><path style="stroke:none" d=""/></g></g><g style="fill:#004aad;fill-opacity:1;"><g transform="translate(248.551619, 105.066898)"><path style="stroke:none" d="M 3.65625 0 L 3.65625 -82.78125 L 20.71875 -82.78125 L 28.328125 -43.171875 L 28.328125 -82.78125 L 44.328125 -82.78125 L 44.328125 0 L 28.140625 0 L 19.859375 -41.4375 L 19.859375 0 Z M 3.65625 0 "/></g></g><g style="fill:#004aad;fill-opacity:1;"><g transform="translate(296.545577, 105.066898)"><path style="stroke:none" d="M 3.65625 0 L 3.65625 -82.78125 L 36.8125 -82.78125 L 36.8125 -66.78125 L 20.53125 -66.78125 L 20.53125 -50.6875 L 36.140625 -50.6875 L 36.140625 -35.078125 L 20.53125 -35.078125 L 20.53125 -16.09375 L 37.875 -16.09375 L 37.875 0 Z M 3.65625 0 "/></g></g><g style="fill:#004aad;fill-opacity:1;"><g transform="translate(336.251423, 105.066898)"><path style="stroke:none" d="M 10.796875 0 L 10.796875 -66.890625 L 0.96875 -66.890625 L 0.96875 -82.78125 L 37.203125 -82.78125 L 37.203125 -66.890625 L 27.375 -66.890625 L 27.375 0 Z M 10.796875 0 "/></g></g></g></g></g></svg>